<svg width="24" height="25" viewBox="0 0 24 25" fill="none" xmlns="http://www.w3.org/2000/svg">
<path d="M12.4917 14.8592V11.4438H23.8319C23.9428 12.0391 24 12.7432 24 13.5054C24 16.0678 23.3098 19.2364 21.0854 21.4939C18.9218 23.7805 16.1574 25 12.4953 25C5.70764 25 0 19.3888 0 12.5C0 5.61121 5.70764 0 12.4953 0C16.2503 0 18.9253 1.49535 20.9352 3.4444L18.5606 5.85439C17.1194 4.48243 15.1667 3.41536 12.4917 3.41536C7.53509 3.41536 3.65847 7.46951 3.65847 12.5C3.65847 17.5305 7.53509 21.5846 12.4917 21.5846C15.7068 21.5846 17.5378 20.2744 18.7108 19.0839C19.662 18.1185 20.2879 16.7393 20.5346 14.8555L12.4917 14.8592V14.8592Z" fill="white"/>
</svg>
