<svg width="24" height="24" viewBox="0 0 24 24" fill="none" xmlns="http://www.w3.org/2000/svg">
<path fill-rule="evenodd" clip-rule="evenodd" d="M24 12C24 10.1435 23.2625 8.36301 21.9497 7.05025C20.637 5.7375 18.8565 5 17 5H7C5.14348 5 3.36301 5.7375 2.05025 7.05025C0.737498 8.36301 0 10.1435 0 12C0 13.8565 0.737498 15.637 2.05025 16.9497C3.36301 18.2625 5.14348 19 7 19C8.96 19 10.73 18.2 12 16.9C13.27 18.2 15.04 19 17 19C18.8565 19 20.637 18.2625 21.9497 16.9497C23.2625 15.637 24 13.8565 24 12ZM8 11V9H6V11H4V13H6V15H8V13H10V11H8ZM19.5607 9.43934C19.2794 9.15804 18.8978 9 18.5 9C18.1022 9 17.7206 9.15804 17.4393 9.43934C17.158 9.72064 17 10.1022 17 10.5C17 10.8978 17.158 11.2794 17.4393 11.5607C17.7206 11.842 18.1022 12 18.5 12C18.8978 12 19.2794 11.842 19.5607 11.5607C19.842 11.2794 20 10.8978 20 10.5C20 10.1022 19.842 9.72064 19.5607 9.43934ZM16.5607 12.4393C16.2794 12.158 15.8978 12 15.5 12C15.1022 12 14.7206 12.158 14.4393 12.4393C14.158 12.7206 14 13.1022 14 13.5C14 13.8978 14.158 14.2794 14.4393 14.5607C14.7206 14.842 15.1022 15 15.5 15C15.8978 15 16.2794 14.842 16.5607 14.5607C16.842 14.2794 17 13.8978 17 13.5C17 13.1022 16.842 12.7206 16.5607 12.4393ZM3.46447 8.46447C4.40215 7.52678 5.67392 7 7 7H17C18.3261 7 19.5979 7.52678 20.5355 8.46447C21.4732 9.40215 22 10.6739 22 12C22 13.3261 21.4732 14.5979 20.5355 15.5355C19.5979 16.4732 18.3261 17 17 17C15.36 17 13.91 16.21 13 15H11C10.09 16.21 8.64 17 7 17C5.67392 17 4.40215 16.4732 3.46447 15.5355C2.52678 14.5979 2 13.3261 2 12C2 10.6739 2.52678 9.40215 3.46447 8.46447Z" fill="white"/>
</svg>
