<svg width="24" height="24" viewBox="0 0 24 24" fill="none" xmlns="http://www.w3.org/2000/svg">
<path fill-rule="evenodd" clip-rule="evenodd" d="M0 17.5V19H3V17.07C3 16.06 3.69 15.22 4.71 14.55C2.78 14.78 0 15.76 0 17.5ZM24 19V17.5C24 15.76 21.22 14.78 19.29 14.55C20.31 15.22 21 16.06 21 17.07V19H24ZM9.52513 6.02513C10.1815 5.36875 11.0717 5 12 5C12.9283 5 13.8185 5.36875 14.4749 6.02513C15.1313 6.6815 15.5 7.57174 15.5 8.5C15.5 9.42826 15.1313 10.3185 14.4749 10.9749C13.8185 11.6313 12.9283 12 12 12C11.0717 12 10.1815 11.6313 9.52513 10.9749C8.86875 10.3185 8.5 9.42826 8.5 8.5C8.5 7.57174 8.86875 6.6815 9.52513 6.02513ZM13.0607 7.43934C12.7794 7.15804 12.3978 7 12 7C11.6022 7 11.2206 7.15804 10.9393 7.43934C10.658 7.72064 10.5 8.10218 10.5 8.5C10.5 8.89782 10.658 9.27936 10.9393 9.56066C11.2206 9.84196 11.6022 10 12 10C12.3978 10 12.7794 9.84196 13.0607 9.56066C13.342 9.27936 13.5 8.89782 13.5 8.5C13.5 8.10218 13.342 7.72064 13.0607 7.43934ZM3.73223 8.73223C4.20107 8.26339 4.83696 8 5.5 8C5.86 8 6.2 8.08 6.5 8.22V8.5C6.5 9.7 6.89 10.86 7.62 11.81C7.39 12.17 7.08 12.47 6.71 12.68C6.35 12.88 5.94 13 5.5 13C5.06 13 4.65 12.88 4.29 12.68C3.53 12.25 3 11.44 3 10.5C3 9.83696 3.26339 9.20107 3.73223 8.73223ZM17.5 8.22C17.8 8.08 18.14 8 18.5 8C19.163 8 19.7989 8.26339 20.2678 8.73223C20.7366 9.20107 21 9.83696 21 10.5C21 11.44 20.47 12.25 19.71 12.68C19.35 12.88 18.94 13 18.5 13C18.06 13 17.65 12.88 17.29 12.68C17.1 12.58 16.94 12.45 16.78 12.3C16.63 12.15 16.5 12 16.38 11.81C17.11 10.86 17.5 9.7 17.5 8.5V8.22ZM5 17.5C5 15.17 9.66 14 12 14C14.34 14 19 15.17 19 17.5V19H5V17.5ZM16.23 17C15.24 16.5 13.53 16 12 16C10.47 16 8.76 16.5 7.77 17H16.23Z" fill="white"/>
</svg>
