<svg width="24" height="24" viewBox="0 0 24 24" fill="none" xmlns="http://www.w3.org/2000/svg">
<path fill-rule="evenodd" clip-rule="evenodd" d="M9.17007 7.76007C7.22007 9.71007 7.22007 12.8801 9.17007 14.8301C9.56007 15.2201 10.2001 15.2201 10.5901 14.8301C11.0001 14.4401 11.0001 13.8001 10.5901 13.4101C9.41007 12.2401 9.41007 10.3401 10.5901 9.17007L14.1201 5.64007C15.2901 4.46007 17.1901 4.46007 18.3601 5.64007C19.5401 6.81007 19.5401 8.71007 18.3601 9.88007L17.8901 10.3601C18.1701 11.1401 18.3001 11.9601 18.2901 12.7801L19.7801 11.2901C21.7301 9.34007 21.7301 6.17007 19.7801 4.22007C17.8301 2.27007 14.6601 2.27007 12.7101 4.22007L9.17007 7.76007ZM14.8301 9.17007C14.4401 8.78007 13.8001 8.78007 13.4101 9.17007C13.0001 9.56007 13.0001 10.2001 13.4101 10.5901C14.5901 11.7601 14.5901 13.6601 13.4101 14.8301L9.88007 18.3601C8.71007 19.5401 6.81007 19.5401 5.64007 18.3601C4.46007 17.1901 4.46007 15.2901 5.64007 14.1201L6.11007 13.6501C5.83007 12.8601 5.70007 12.0401 5.71007 11.2201L4.22007 12.7101C2.27007 14.6601 2.27007 17.8301 4.22007 19.7801C6.17007 21.7301 9.34007 21.7301 11.2901 19.7801L14.8301 16.2401C16.7801 14.2901 16.7801 11.1201 14.8301 9.17007Z" fill="white"/>
</svg>
