<svg width="24" height="24" viewBox="0 0 24 24" fill="none" xmlns="http://www.w3.org/2000/svg">
<path fill-rule="evenodd" clip-rule="evenodd" d="M12 0L11.34 0.03L15.15 3.84L16.5 2.5C19.75 4.07 22.09 7.24 22.4501 11H23.9501C23.4401 4.84 18.29 0 12 0ZM12 24L12.66 23.97L8.85005 20.16L7.50005 21.5C4.25005 19.94 1.91005 16.76 1.55005 13H0.0500488C0.560049 19.16 5.71005 24 12 24ZM12 13.9C10 13.9 6.00005 15 6.00005 17V18H18V17C18 15 14 13.9 12 13.9ZM14.1214 11.1213C14.684 10.5587 15 9.79565 15 9C15 8.20435 14.684 7.44129 14.1214 6.87868C13.5588 6.31607 12.7957 6 12 6C11.2044 6 10.4413 6.31607 9.87873 6.87868C9.31612 7.44129 9.00005 8.20435 9.00005 9C9.00005 9.79565 9.31612 10.5587 9.87873 11.1213C10.4413 11.6839 11.2044 12 12 12C12.7957 12 13.5588 11.6839 14.1214 11.1213Z" fill="white"/>
</svg>
