<svg width="24" height="24" viewBox="0 0 24 24" fill="none" xmlns="http://www.w3.org/2000/svg">
<path fill-rule="evenodd" clip-rule="evenodd" d="M9 14V12H7V14H9ZM21 20V6C21 5.46957 20.7893 4.96086 20.4142 4.58579C20.0391 4.21071 19.5304 4 19 4H18V2H16V4H8V2H6V4H5C4.46957 4 3.96086 4.21071 3.58579 4.58579C3.21071 4.96086 3 5.46957 3 6V20C3 21.1 3.89 22 5 22H19C19.5304 22 20.0391 21.7893 20.4142 21.4142C20.7893 21.0391 21 20.5304 21 20ZM19 8H5V6H19V8ZM19 10V20H5V10H19ZM15 12V14H17V12H15ZM11 12V14H13V12H11ZM9 18V16H7V18H9ZM15 16V18H17V16H15ZM11 16V18H13V16H11Z" fill="white"/>
</svg>
