<svg width="24" height="24" viewBox="0 0 24 24" fill="none" xmlns="http://www.w3.org/2000/svg">
<path fill-rule="evenodd" clip-rule="evenodd" d="M14 2H10C8.89 2 8 2.89 8 4V6H4C2.89 6 2 6.89 2 8V19C2 20.1 2.89 21 4 21H11.81C11.26 20.42 10.81 19.75 10.5 19H4V8H20V11C20.8 11.54 21.5 12.23 22 13.03V8C22 7.46957 21.7893 6.96086 21.4142 6.58579C21.0391 6.21071 20.5304 6 20 6H16V4C16 3.46957 15.7893 2.96086 15.4142 2.58579C15.0391 2.21071 14.5304 2 14 2ZM14 4V6H10V4H14ZM23.39 22L20.31 18.9C20.75 18.21 21 17.38 21 16.5C21 14 19 12 16.5 12C14 12 12 14 12 16.5C12 19 14 21 16.5 21C17.37 21 18.19 20.75 18.88 20.32L22 23.39L23.39 22ZM18.2678 18.2678C17.7989 18.7366 17.163 19 16.5 19C15.837 19 15.2011 18.7366 14.7322 18.2678C14.2634 17.7989 14 17.163 14 16.5C14 15.837 14.2634 15.2011 14.7322 14.7322C15.2011 14.2634 15.837 14 16.5 14C17.163 14 17.7989 14.2634 18.2678 14.7322C18.7366 15.2011 19 15.837 19 16.5C19 17.163 18.7366 17.7989 18.2678 18.2678Z" fill="white"/>
</svg>
