<svg width="24" height="25" viewBox="0 0 24 25" fill="none" xmlns="http://www.w3.org/2000/svg">
<g clip-path="url(#clip0)">
<path d="M19.2867 7.84315C20.787 9.34344 21.6299 11.3783 21.6299 13.5C21.6299 15.6217 20.787 17.6566 19.2867 19.1569C17.7864 20.6571 15.7516 21.5 13.6299 21.5C11.5081 21.5 9.4733 20.6571 7.97301 19.1569C6.47271 17.6566 5.62986 15.6217 5.62986 13.5C5.62986 11.3783 6.47272 9.34344 7.97301 7.84315C9.4733 6.34285 11.5081 5.5 13.6299 5.5C15.7516 5.5 17.7864 6.34285 19.2867 7.84315ZM9.38722 17.7426C10.5124 18.8679 12.0386 19.5 13.6299 19.5C15.2212 19.5 16.7473 18.8679 17.8725 17.7426C18.9977 16.6174 19.6299 15.0913 19.6299 13.5C19.6299 11.9087 18.9977 10.3826 17.8725 9.25736C16.7473 8.13214 15.2212 7.5 13.6299 7.5C12.0386 7.5 10.5124 8.13214 9.38722 9.25736C8.262 10.3826 7.62986 11.9087 7.62986 13.5C7.62986 15.0913 8.262 16.6174 9.38722 17.7426ZM5.14458 5.01472C3.29903 6.86027 2.91012 9.61091 3.97785 11.8383V14.5C4.55448e-07 11.5 1.09286 6.23801 3.73037 3.60051C6.36787 0.962997 11.5 0.5 14.5086 3.6005L11.9682 3.84799C9.74077 2.78026 6.99013 3.16917 5.14458 5.01472Z" fill="white"/>
<rect x="12.7" y="10.5" width="1.7" height="6" fill="white"/>
</g>
<defs>
<clipPath id="clip0">
<rect y="0.5" width="24" height="24" fill="white"/>
</clipPath>
</defs>
</svg>
