<svg width="24" height="24" viewBox="0 0 24 24" fill="none" xmlns="http://www.w3.org/2000/svg">
<path fill-rule="evenodd" clip-rule="evenodd" d="M8 8C8 5.79 9.79 4 12 4C14.21 4 16 5.79 16 8C16 10.21 14.21 12 12 12C9.79 12 8 10.21 8 8ZM12 5.9C13.16 5.9 14.1 6.84 14.1 8C14.1 9.16 13.16 10.1 12 10.1C10.84 10.1 9.9 9.16 9.9 8C9.9 6.84 10.84 5.9 12 5.9ZM12 14.9C14.97 14.9 18.1 16.36 18.1 17V18.1H5.9V17C5.9 16.36 9.03 14.9 12 14.9ZM12 13C9.33 13 4 14.34 4 17V19.5C4 19.7761 4.22386 20 4.5 20H19.5C19.7761 20 20 19.7761 20 19.5V17C20 14.34 14.67 13 12 13Z" fill="white"/>
</svg>
